<svg xmlns="http://www.w3.org/2000/svg" viewBox="0 0 512 512"><path d="M372.4 109.2h71.5c2.3 0 4.1 1.8 4.1 4.1v189.1c0 2.3-1.8 4.1-4.1 4.1h-71.5c-2.3 0-4.1-1.8-4.1-4.1V113.3c0-2.3 1.8-4.1 4.1-4.1zM213.6 389.8c-5.1-1.4-8.1-14.5-11.2-38.5-2.7-20.3-2.2-38.6-2.2-38.8l.7-26.7c.1-2.2-1.7-4.1-4-4.1h-86c-6.5 0-10.6-3.5-12.5-5.6s-4.9-6.7-4.1-13.3c10.4-85.3 25.4-115.3 47.6-138.4 1.3-1.4 3.1-2.2 5-2.2 3.2-.1 6.6-.1 9.9-.1 40.4 0 77.8 6.7 113.9 13.1 10.5 1.9 20.5 3.6 30.4 5.2 1.7.3 5.7 1 10.6 2v128c-8.7 2.9-18.7 7.3-29.2 14.1-16.2 10.4-28.4 23.9-37.2 41.1-7.1 13.8-10.6 27.3-13.8 39.2-2.4 9.2-4.2 17.7-7.8 22.3-4 5-10.1 2.7-10.1 2.7zm128.1-268.7c0-1.9-1.3-3.5-3.2-3.9-7.8-1.6-27.4-5.6-32.7-6.4-43.7-7-93.8-18.7-149.1-18.7-3.5 0-7.1 0-10.7.1-9.7.3-18.9 4.3-25.6 11.3-28.5 29.5-45.1 67-56 155.7-3.4 27.9 18.3 52.5 46.4 52.5h59.3s-3.7 106.8 41.4 108.1c65.4 1.4 30.1-73.4 87.2-110.2 17.3-11.2 32.3-13.9 39.1-14.5 2.1-.2 3.6-1.9 3.6-4l.3-170z"/></svg>