<svg xmlns="http://www.w3.org/2000/svg" viewBox="0 0 512 512"><path d="M372.4 109.2h71.5c2.3 0 4.1 1.8 4.1 4.1v189.1c0 2.3-1.8 4.1-4.1 4.1h-71.5c-2.3 0-4.1-1.8-4.1-4.1V113.3c0-2.3 1.8-4.1 4.1-4.1zM341.7 121.1c0-1.9-1.3-3.5-3.2-3.9-7.8-1.6-27.4-5.6-32.7-6.4-43.7-7-93.8-18.7-149.1-18.7-3.5 0-7.1 0-10.7.1-9.7.3-18.9 4.3-25.6 11.3-28.5 29.5-45.1 67-56 155.7-3.4 27.9 18.3 52.5 46.4 52.5h71.3s-5.2 104.6 34.4 108.1c47.8 2.7 25.4-83 77.2-110.2 17.3-11.2 37.3-13.9 44.1-14.5 2.1-.2 3.6-1.9 3.6-4l.3-170z"/></svg>